<?xml version="1.0" encoding="UTF-8"?>
<!--Generator: Apple Native CoreSVG 232.5-->
<!DOCTYPE svg
PUBLIC "-//W3C//DTD SVG 1.1//EN"
       "http://www.w3.org/Graphics/SVG/1.1/DTD/svg11.dtd">
<svg version="1.1" xmlns="http://www.w3.org/2000/svg" xmlns:xlink="http://www.w3.org/1999/xlink" width="50.8789" height="50.918">
 <g>
  <rect height="50.918" opacity="0" width="50.8789" x="0" y="0"/>
  <path d="M25.4297 50.8789C39.3555 50.8789 50.8789 39.3555 50.8789 25.4492C50.8789 11.5234 39.3359 0 25.4102 0C11.5039 0 0 11.5234 0 25.4492C0 39.3555 11.5234 50.8789 25.4297 50.8789ZM25.4297 47.2461C13.3594 47.2461 3.65234 37.5195 3.65234 25.4492C3.65234 13.3594 13.3398 3.65234 25.4102 3.65234C37.5 3.65234 47.2266 13.3594 47.2266 25.4492C47.2266 37.5195 37.5195 47.2461 25.4297 47.2461Z" fill="#98989d"/>
  <path d="M25.3906 43.7891C35.5859 43.7891 43.7695 35.6055 43.75 25.4102C43.7305 15.2344 35.5469 7.05078 25.3711 7.05078C15.1758 7.05078 7.03125 15.2148 7.03125 25.4102C7.03125 35.625 15.1953 43.7891 25.3906 43.7891Z" fill="#32d74b"/>
 </g>
</svg>
