<?xml version="1.0" encoding="UTF-8"?>
<!--Generator: Apple Native CoreSVG 232.5-->
<!DOCTYPE svg
PUBLIC "-//W3C//DTD SVG 1.1//EN"
       "http://www.w3.org/Graphics/SVG/1.1/DTD/svg11.dtd">
<svg version="1.1" xmlns="http://www.w3.org/2000/svg" xmlns:xlink="http://www.w3.org/1999/xlink" width="52.3828" height="52.4023">
 <g>
  <rect height="52.4023" opacity="0" width="52.3828" x="0" y="0"/>
  <path d="M23.8281 52.4023L28.5547 52.4023C29.9023 52.4023 30.8594 51.6211 31.1523 50.2734L32.4414 44.8242C33.3398 44.5117 34.2383 44.1602 35.0391 43.7891L39.8047 46.7383C40.9375 47.4609 42.1875 47.3438 43.1055 46.4062L46.4258 43.1055C47.3633 42.168 47.5 40.8984 46.7383 39.7461L43.8086 35.0195C44.1797 34.1797 44.5312 33.3203 44.8047 32.4609L50.293 31.1719C51.6406 30.8789 52.3828 29.9219 52.3828 28.5742L52.3828 23.9062C52.3828 22.5781 51.6406 21.6406 50.293 21.3281L44.8438 20.0195C44.5312 19.082 44.1602 18.2227 43.8477 17.4609L46.7773 12.6562C47.5195 11.5234 47.4219 10.293 46.4648 9.35547L43.1055 6.03516C42.1484 5.15625 41.0156 5 39.8633 5.68359L35.0391 8.67188C34.2578 8.28125 33.3789 7.94922 32.4414 7.63672L31.1523 2.12891C30.8594 0.78125 29.9023 0 28.5547 0L23.8281 0C22.4805 0 21.5234 0.78125 21.2305 2.12891L19.9414 7.59766C19.043 7.91016 18.1445 8.24219 17.3242 8.65234L12.5195 5.68359C11.3672 5 10.2148 5.13672 9.27734 6.03516L5.91797 9.35547C4.96094 10.293 4.86328 11.5234 5.60547 12.6562L8.53516 17.4609C8.22266 18.2227 7.85156 19.082 7.53906 20.0195L2.08984 21.3281C0.761719 21.6406 0 22.5781 0 23.9062L0 28.5742C0 29.9219 0.761719 30.8789 2.08984 31.1719L7.57812 32.4609C7.85156 33.3203 8.20312 34.1797 8.57422 35.0195L5.64453 39.7461C4.88281 40.8984 5.01953 42.168 5.95703 43.1055L9.27734 46.4062C10.1953 47.3438 11.4453 47.4609 12.5781 46.7383L17.3438 43.7891C18.1641 44.1602 19.043 44.5117 19.9414 44.8242L21.2305 50.2734C21.5234 51.6211 22.4805 52.4023 23.8281 52.4023ZM26.2109 35.1562C21.2695 35.1562 17.2266 31.0938 17.2266 26.1719C17.2266 21.2695 21.2891 17.2266 26.2109 17.2266C31.1328 17.2266 35.1758 21.2695 35.1758 26.1719C35.1758 31.0938 31.1328 35.1562 26.2109 35.1562Z" fill="#ffffff"/>
 </g>
</svg>
