<?xml version="1.0" encoding="UTF-8"?>
<!--Generator: Apple Native CoreSVG 232.5-->
<!DOCTYPE svg
PUBLIC "-//W3C//DTD SVG 1.1//EN"
       "http://www.w3.org/Graphics/SVG/1.1/DTD/svg11.dtd">
<svg version="1.1" xmlns="http://www.w3.org/2000/svg" xmlns:xlink="http://www.w3.org/1999/xlink" width="50.2344" height="42.5586">
 <g>
  <rect height="42.5586" opacity="0" width="50.2344" x="0" y="0"/>
  <path d="M34.4141 42.5586C37.6172 42.5586 40.2344 39.9414 40.2344 36.7383C40.2344 33.5547 37.6172 30.9375 34.4141 30.9375C31.2305 30.9375 28.6133 33.5547 28.6133 36.7383C28.6133 39.9414 31.2305 42.5586 34.4141 42.5586ZM34.4141 39.7852C32.7148 39.7852 31.3867 38.4375 31.3867 36.7383C31.3867 35.0195 32.7148 33.6914 34.4141 33.6914C36.1328 33.6914 37.4609 35.0195 37.4609 36.7383C37.4609 38.4375 36.1328 39.7852 34.4141 39.7852ZM30.3906 35L1.73828 35C0.761719 35 0 35.7617 0 36.7383C0 37.6953 0.761719 38.457 1.73828 38.457L30.3906 38.457ZM48.5742 35L38.7305 35L38.7305 38.457L48.5742 38.457C49.4727 38.457 50.2344 37.6953 50.2344 36.7383C50.2344 35.7617 49.4727 35 48.5742 35ZM16.3086 27.1484C19.5117 27.1484 22.1289 24.5508 22.1289 21.3477C22.1289 18.1445 19.5117 15.5273 16.3086 15.5273C13.125 15.5273 10.5078 18.1445 10.5078 21.3477C10.5078 24.5508 13.125 27.1484 16.3086 27.1484ZM16.3086 24.3945C14.6094 24.3945 13.2812 23.0273 13.2812 21.3281C13.2812 19.6094 14.6094 18.2812 16.3086 18.2812C18.0273 18.2812 19.3555 19.6094 19.3555 21.3281C19.3555 23.0273 18.0273 24.3945 16.3086 24.3945ZM1.66016 19.6094C0.761719 19.6094 0 20.3711 0 21.3281C0 22.3047 0.761719 23.0664 1.66016 23.0664L12.0508 23.0664L12.0508 19.6094ZM48.4961 19.6094L20.3516 19.6094L20.3516 23.0664L48.4961 23.0664C49.4727 23.0664 50.2344 22.3047 50.2344 21.3281C50.2344 20.3711 49.4727 19.6094 48.4961 19.6094ZM34.4141 11.7188C37.6172 11.7188 40.2344 9.10156 40.2344 5.89844C40.2344 2.71484 37.6172 0.0976562 34.4141 0.0976562C31.2305 0.0976562 28.6133 2.71484 28.6133 5.89844C28.6133 9.10156 31.2305 11.7188 34.4141 11.7188ZM34.4141 8.94531C32.7148 8.94531 31.3867 7.59766 31.3867 5.89844C31.3867 4.17969 32.7148 2.85156 34.4141 2.85156C36.1328 2.85156 37.4609 4.17969 37.4609 5.89844C37.4609 7.59766 36.1328 8.94531 34.4141 8.94531ZM30.4492 4.19922L1.73828 4.19922C0.761719 4.19922 0 4.96094 0 5.9375C0 6.89453 0.761719 7.65625 1.73828 7.65625L30.4492 7.65625ZM48.5742 4.19922L38.5156 4.19922L38.5156 7.65625L48.5742 7.65625C49.4727 7.65625 50.2344 6.89453 50.2344 5.9375C50.2344 4.96094 49.4727 4.19922 48.5742 4.19922Z" fill="#98989d"/>
 </g>
</svg>
